<svg id="Layer_1" data-name="Layer 1" xmlns="http://www.w3.org/2000/svg" viewBox="0 0 1000 1000"><defs><style>.cls-1{fill:#fff;}</style></defs><title>Hvit</title><g id="KHgenS"><path class="cls-1" d="M509.16,997.77H493.93c-12.2-5.13-26.41-7.81-36.25-15.84-33-27-42.6-63.93-35.56-104.47,6.41-36.9,23.17-69.71,47.9-98.19,6.53-7.52,12.6-15.42,18.86-23.13C448.57,720.58,375.79,692,333.39,699.86c4.84,32.43.81,64.07-9.15,95.43-14,44.06-39.8,75.89-85.55,89.2-29.54,8.6-56.21,3.62-77.88-18.36C139,844,135.75,816.58,143.76,787.56c11.91-43.18,43-68.81,82.66-83.64,28.66-10.72,59.16-16.51,89.4-24.65a259,259,0,0,0-49.4-99.56c-42.61,22.47-85,42.62-132.2,48.61-35.18,4.47-69.63.42-97.66-23.23-10.84-9.16-16.81-24.08-25-36.38v-33c12.35-31.82,32.94-53.37,68.5-58.87,50.58-7.83,95.87,4.84,136.41,34.42,19.8,14.44,37.44,31.83,56.8,48.53l96.58-60.69L264,354.37c-20.23,6.36-37.91,12.8-56.06,17.44-30.55,7.81-61.28,15.41-93.29,8.87-33.91-6.94-62.38-20.88-76.27-55.63-12-30.14-2.3-68.2,22.88-89.13,39.92-33.17,85.32-32,131.21-19.45,33.1,9.05,60,29.93,82.74,55.56,11.89,13.38,23.25,27.22,35.67,41.82,18-12.72,35.46-24.89,52.7-37.43,5.59-4.06,6.94-8,2.46-15.66-17.07-29.22-34-58.68-48.36-89.28-13.7-29.23-20.66-60.57-13.87-93.27,5.7-27.45,15.69-52.5,42.85-65.94,8.1-4,16.94-6.52,25.45-9.72h20.31a58,58,0,0,0,6.56,2.69c26.22,7.33,44.17,23.13,54.57,48.84,16.38,40.54,9.27,80.24-2.91,119.51C439,210.93,417.85,243,388,272.45L500.68,396.9l112-124.17c-24.28-26.44-43.75-52.31-55.92-83.21-13.88-35.25-23.86-71.1-16.82-109.28,6.46-35,22.73-62.93,59.22-74.41,3-1,6-2.18,9-3.28h20.31c2.23.9,4.39,2.15,6.71,2.65,25.33,5.37,43.45,20.3,53.51,43.59,17,39.37,12,79.26-2.19,118-12.57,34.3-30.86,65.87-52.25,95.61-1.76,2.45-1.34,9.6.68,11.15,18.17,13.88,36.94,27,55.78,40.53,6.68-8,11.94-14.05,16.84-20.34,31.46-40.38,68.3-73,120.93-81.86,39.4-6.66,76.66-3.65,109.91,22.51C965,255.29,976.16,294.9,963.09,326c-18.33,43.67-70.66,60.9-113.12,56.39-35.91-3.81-71-11.75-104.2-26.55-6-2.67-10.2-2.17-13,4.23a40.69,40.69,0,0,1-4.42,7.57c-32.17,43.6-64.4,87.16-97.17,131.47,29.64,18.47,58.68,36.14,87.21,54.6,8.6,5.57,13.59,5.54,21-2.55,35.95-39.45,78.23-68.87,132.81-75,28.88-3.25,59.12-5.7,83.37,14.5,13.14,10.95,22.46,26.49,33.5,40v40.62c-18,43.31-54.27,56.24-97.08,58.21-34.85,1.6-67-9.5-98.66-21.85-20.13-7.87-39.3-18.21-58.76-27.36-46.44,68.46-45,81.16-47.56,100.28,24.09,5.91,48.3,10.88,71.92,17.85,46.48,13.72,83,39.67,98.87,87.87,12.95,39.36-.7,69.78-25,86.94-35.64,25.2-67.69,19.39-102.06-3.17C686.1,840.74,670,794.69,666.89,743.45c-.92-15-.14-30-.14-45.45-60.1-.3-108.82,22.89-154,56.9,2.62,4.3,3.72,7.16,5.69,9.18,24.41,25,41.13,54.71,54.27,86.89,19.49,47.73,9.57,97-29.3,130.64C534.19,989.56,520.68,992.52,509.16,997.77ZM721.75,572.3c-5.29-3.18-9.59-5.66-13.8-8.29-25.58-16-51.3-31.75-76.59-48.17-6.66-4.33-9.71-3.53-13.94,3-6.37,9.81-14.22,18.65-21.09,28.15-19.9,27.5-39.49,55.22-59.48,82.66-11.77,16.15-24.08,31.91-36.51,48.33-21-28.86-41.15-56.73-61.45-84.51q-30.22-41.38-60.6-82.57L280,572.6c2.12,3.58,3.89,7.31,6.31,10.53,20.19,26.8,34.52,56.47,41.87,89.13,2.09,9.29,6.06,11,14.42,11,31.49.29,61.58,8.13,89.67,21.63,23.7,11.38,46,25.58,70.43,39.36,9.08-6.3,19.95-15,31.83-21.88,39.61-23.08,81.55-39,128.25-39.59,3,0,7.89-3.85,8.57-6.7C680.49,637.94,699.11,604.45,721.75,572.3Zm-103-311.49c5.78-9.09,8.92-14.44,12.46-19.52,20.18-29,36.35-60.11,46.36-94,10.78-36.49,12.76-72.49-10.53-106-18.29-26.36-60.41-31.74-84.79-11-25.42,21.59-30.48,50.6-29.24,81,1.47,35.58,11.15,69.54,30,100C593.25,227.8,605.75,243,618.72,260.81Zm-237.54-1.56c32.8-34,53.18-70.79,62.49-113.51,7.38-33.89,9.68-67.37-10.11-98.58-13.92-22-33.83-32.59-59.58-29.31-23.54,3-40.28,17.39-48.89,38.71-9.58,23.71-13,49.2-5,74.08,8.42,26.08,17.92,52,29.37,76.85C357.59,225.11,369.73,240.87,381.18,259.25ZM321.43,728.72c0-6.35-.13-12.69,0-19,.28-10.52-5.26-12.54-14.6-11.45A287.72,287.72,0,0,0,225,720c-33.16,14.37-56.69,37-68.19,71.07-11.16,33.07,4.49,67.19,35.1,79.47,26.19,10.51,69.42-3.51,90.08-27.9C310,809.61,320.74,771,321.43,728.72ZM681.6,698.29c0,18.23-.9,34.69.19,51,2.32,34.83,13.11,67,37.23,92.83,22.44,24,50.84,38.59,84,29.87,45.79-12.07,56-61.08,31.22-103.71-14.68-25.24-38-40.6-64.84-51.51C741.52,705.46,713,698.8,681.6,698.29ZM257.35,567.71C227,532.33,192.09,505,146.82,493.22c-30.89-8-61.64-9.64-90.51,7C23.92,518.85,12.55,559.68,41,589.9c18.17,19.34,41.52,23.41,65.42,24.38C161.74,616.53,209.79,593.64,257.35,567.71Zm486.22,1c19.11,8.92,36,17.19,53.13,24.72,42,18.41,85.34,28.05,130.93,15.87,22.17-5.93,39.36-18.58,45.89-42,6.19-22.28,1.12-42-16.13-57.33-23.31-20.7-50.83-24.84-81.29-20.54C821.46,497.09,779.86,525.37,743.57,568.68ZM501,984c6.41-1.7,13.09-2.72,19.17-5.21C556,964.05,570,925.63,566.72,890.08c-4.33-47.17-30.84-84.34-60.4-119.3-1.61-1.91-8.21-2.68-9.56-1.24-26.17,27.83-46.4,59.47-58.09,96-7.38,23.1-7,46.3,1.79,69.17C451.72,964,475.06,982.67,501,984ZM254.66,341.55c-22.21-31.1-46.17-59.18-77.14-79.94s-64.42-28-99.85-10.59C50.19,264.52,39.23,294.68,52,321c15.12,31.23,41.94,44.48,74.75,47.22C171.45,371.93,212.65,357.24,254.66,341.55ZM746,341.36c9.15,3.25,16.17,5.64,23.12,8.22,34.12,12.72,69.09,21.79,105.75,18.5,32.95-2.95,60.64-15.75,74.71-48.57,10.38-24.23.86-49.65-11.55-59.25-23.67-18.3-50.68-23.83-79.57-14.79C808.23,261.17,778.57,301,746,341.36ZM512.55,405l70.65,59.34L683.31,326.86l-60.83-44.17Zm-23.69.31L378.79,282.6C359.11,297,339,311.68,318,327L418.13,464.19Zm11.77,172,74-101.32-74.08-62.42L426.84,476.1Z"/></g></svg>